# xmcd
#
# Track frame offsets:
#	150
#	13904
#	30509
#	45564
#	59776
#	75022
#	89789
#	102345
#	116621
#	128304
#	143449
#	157706
#	171463
#	184067
#	194181
#	213583
#
# Disc length: 3137 seconds
#
# Revision: 1
# Processed by: cddbd v1.5.2PL0 Copyright (c) Steve Scherf et al.
# Submitted via: audiograbber 1.83.01
#
DISCID=d70c3f10
DTITLE=Daniel O`Donnell - Live, Laugh, Love
DYEAR=2001
DGENRE=Easy Listening
TTITLE0=Live, Laugh, Love
TTITLE1=Somewhere Under The Sun
TTITLE2=Green, Green Grass Of Home
TTITLE3=On The Other Hand
TTITLE4=Waltz Across Texas
TTITLE5=Among The Wicklow Hills
TTITLE6=Only This Moment Is Mine
TTITLE7=All I Want Is You
TTITLE8=Don`t Say Love
TTITLE9=One More Time
TTITLE10=I Can`t See Me Without You
TTITLE11=Rosa Rio
TTITLE12=I Will Think Of You
TTITLE13=Thank You For Loving Me
TTITLE14=Roads Of Kildare
TTITLE15=Belfast
EXTD=ID3G:  98 YEAR: 2001
EXTT0=
EXTT1=
EXTT2=
EXTT3=
EXTT4=
EXTT5=
EXTT6=
EXTT7=
EXTT8=
EXTT9=
EXTT10=
EXTT11=
EXTT12=
EXTT13=
EXTT14=
EXTT15=
PLAYORDER=
